<svg width="64" height="64" viewBox="0 0 64 64" fill="none" xmlns="http://www.w3.org/2000/svg">
<path d="M48.6667 42C45.96 43.44 43.28 43.3333 40 43.3333C34.8725 43.3333 29.955 41.2964 26.3293 37.6707C22.7036 34.045 20.6667 29.1275 20.6667 24C20.6667 20.72 20.56 18.04 22 15.3333C15.896 18.584 12.6667 24.6027 12.6667 32C12.6667 37.1275 14.7036 42.045 18.3293 45.6707C21.955 49.2964 26.8725 51.3333 32 51.3333C39.3973 51.3333 45.416 48.104 48.6667 42Z" stroke="black" stroke-width="4" stroke-linecap="round" stroke-linejoin="round"/>
<path d="M42.6667 12.6667C42.6667 18.56 39.8933 24 34 24C39.8933 24 42.6667 29.44 42.6667 35.3333C42.6667 29.44 45.44 24 51.3333 24C45.44 24 42.6667 18.56 42.6667 12.6667Z" stroke="black" stroke-width="4" stroke-linecap="round" stroke-linejoin="round"/>
</svg>
